Patient4_TMGait_0pt4_03_left_35_EMG.mot
version=1
nRows=32
nColumns=33
inDegrees=no
endheader
time	1LAddLong	2LGlutMax	3LGlutMed	4LIliopsoas	5LSemiMemb	6LBicFemLong	7LRecFem	8LVastMed	9LVastLat	10LGasMed	11LTibAnt	12lTibPost	13LPeroneusLong	14LSol	15LExtDigLong	16LFlexDigLong	17RAddLong	18RGlutMax	19RGlutMed	20RIliopsoas	21RSemiMemb	22RBicFemLong	23RRecFem	24RVastMed	25RVastLat	26RGasMed	27RTibAnt	28RTibPost	29RPeroneusLong	30RSol	31RExtDigLong	32RFlexDigLong
47.728	-0.007172	0.062714	-0.084229	-0.004425	-0.041351	-0.032501	-0.011444	0.013123	0.058899	-0.007935	0.003052	-0.001678	0.01236	-0.055389	-0.009918	0.02594	0.009766	-0.1471	-0.26077	0.039825	-0.042114	0.034943	0.10559	-0.042419	0.033569	0.036774	-0.045929	-0.013123	-0.009003	0.30487	0.001831	-0.002747
47.729	0.003204	0.055542	-0.079041	-0.005035	-0.042114	-0.039673	-0.038757	0.008087	0.051575	-0.011139	0.007935	-0.005493	0.017395	-0.10529	-0.007935	0.027008	0.004883	-0.112	0.10147	-0.023499	-0.028534	-0.028229	0.07019	-0.053253	0.007172	0.026855	0.065765	-0.036774	-0.056763	0.30853	-0.005493	-0.009766
47.73	0.020447	0.064697	-0.047455	-0.009918	-0.047607	-0.071869	-0.023193	-0.006104	0.053558	-0.00473	0.004272	0.002289	0.016937	-0.090942	0.002899	0.019989	0.00412	-0.054321	0.42099	-0.013428	0.002899	-0.014648	-0.039825	-0.080261	-0.080414	-0.000458	0.000458	0.007172	-0.055542	0.30746	0	-0.009766
47.731	0.087891	0.060883	-0.010681	0.005646	0.001526	-0.067596	-0.010529	0.005798	0.046539	0.009155	0.002899	-0.007324	0.014038	-0.050354	0.003662	0.01709	0.017395	-0.038452	0.020752	-0.009613	-0.019379	-0.014801	-0.12421	-0.12802	-0.092773	0.00061	-0.04425	0.062408	-0.023651	0.21347	-0.002899	-0.00061
47.732	0.015106	0.077209	0.021362	0.001221	0.027466	-0.037079	-0.0354	-0.004883	0.048981	0.010376	0.009155	-0.001831	-0.008392	-0.022736	0.006256	0.034485	0.025787	0.011902	-0.14221	-0.006866	0.012207	-0.01358	-0.15427	-0.12543	-0.1004	0.005646	0.072784	0.016785	-0.038605	-0.16464	0.004578	-0.002594
47.733	0.021057	0.067596	-0.007935	-0.001373	0.020447	-0.00946	-0.027313	-0.001678	0.046997	-0.002289	0.008392	-0.001831	-0.013428	-0.052948	-0.009003	0.020905	0.017242	-0.006714	-0.039368	-0.037079	0.039368	-0.007019	-0.21133	-0.053864	-0.059814	0.006104	0.090332	-0.001984	0.029449	-0.13718	-0.002899	-0.001373
47.734	0.011749	0.060272	-0.033722	-0.00946	-0.014648	-0.024261	-0.021973	0.008392	0.039673	-0.015411	0.00473	-0.007172	-0.02121	-0.035858	-0.036469	0.015106	0.004883	-0.027161	0.28153	-0.10712	0.014191	0.003815	-0.14358	0.18326	0.075226	0.010376	0.20966	-0.009613	0.10376	-0.18066	0	-0.000458
47.735	0.007782	0.053101	0.001831	-0.002441	-0.006104	0.010834	-0.043182	-0.005341	0.036163	-0.020752	0.010529	0	-0.020905	-0.063934	-0.046082	0.015106	0.010834	-0.021667	0.0737	-0.082245	-0.042114	0.013275	0.12528	0.19409	0.028687	-0.002136	-0.093689	-0.00473	-0.006409	-0.083466	-0.002136	-0.003967
47.736	0.008392	0.052338	-0.012054	-0.002747	-0.00946	0.024414	-0.047607	-0.002594	0.029449	-0.012817	0.005798	-0.011749	-0.000305	-0.078583	-0.014648	0.014038	0.016937	-0.018005	-0.19943	-0.016174	-0.054321	0.028992	0.15289	0.08316	-0.016479	-0.007172	-0.32379	-0.006409	-0.10513	0.016937	-0.001068	-0.012207
47.737	0.015564	0.023193	-0.043182	-0.005188	0.015106	0.008392	-0.036011	0.000458	0.025482	-0.00824	0.003204	-0.007019	0.009613	-0.055237	-0.010223	0.006561	0.029144	-0.097504	-0.46951	0.097198	-0.003204	-0.015259	0.009155	-0.2211	-0.0737	-0.007172	-0.48935	-0.009918	0.016632	0.014038	-0.000916	-0.00885
47.738	0.00824	0.034332	-0.069427	-0.015106	-0.00351	0.002594	-0.023346	0.001221	0.021973	-0.005341	0.005035	-0.018005	0.012817	-0.033875	-0.00885	0.00885	0.023041	-0.092926	-0.54245	0.10086	-0.02533	-0.006561	-0.10269	-0.10544	-0.082397	-0.003662	-0.31281	-0.006409	0.19974	0.017395	0.001678	-0.013123
47.739	0.007324	0.023193	-0.079193	-0.012512	-0.085754	-0.032043	-0.029449	0.00885	0.025635	-0.016022	0.010986	0.003204	-0.001984	-0.038757	-0.006104	0.009918	0.016937	-0.068512	-0.48691	-0.008392	-0.085144	0.005493	-0.10483	0.17334	0.046234	-0.001526	0.15106	-0.007019	0.09552	-0.024261	0.000763	-0.0177
47.74	0.008087	-0.00824	-0.041046	-0.001068	-0.056305	-0.090027	-0.027618	-0.002136	0.003357	-0.022583	0.010223	-0.011444	0.001984	-0.04364	-0.006256	0.009308	0.018616	-0.067291	0.003815	-0.088348	-0.1059	0.005951	-0.066986	0.1207	0.14252	-0.001068	0.36102	-0.00946	-0.0737	-0.020752	0.000916	-0.015717
47.741	0.011139	0.005493	-0.064697	-0.004883	0.029907	-0.091705	-0.020142	0.003662	0.002899	-0.032196	0.005188	-0.011902	-0.019379	-0.075684	-0.013733	0.003967	0.033112	-0.058899	0.15656	-0.050049	-0.010529	-0.031281	-0.014343	0.018463	0.080261	0.004272	0.83572	-0.00412	-0.031738	-0.059814	-0.001831	-0.017853
47.742	0.010071	0.005035	-0.038757	0.009003	0.052338	-0.050964	-0.016937	0.009613	0.009613	-0.038147	0.006104	-0.010681	-0.017395	-0.05722	-0.001831	-0.005951	0.038757	-0.10452	0.1709	0.065613	0.12589	-0.064087	0.024872	-0.022736	0.054626	-0.001068	0.76752	-0.001373	-0.080566	-0.11002	0.00061	-0.008392
47.743	0.006561	0.018921	-0.084381	0.006256	0.04364	-0.062103	-0.014496	-0.00351	0.012207	-0.05188	0.015564	0	-0.019379	-0.079803	-0.004425	0.001526	0.03479	-0.10422	0.35446	0.057373	0.10513	-0.075073	-0.063477	-0.020294	0.027008	-0.00061	0.45548	-0.003052	-0.037689	-0.11643	-0.001068	-0.012054
47.744	0.011444	-0.002289	-0.13046	-0.001068	0.015259	-0.046082	-0.024719	0.017395	0.011139	-0.080719	0.012207	-0.014343	-0.022888	-0.066223	0.005188	0.005493	0.00885	-0.035095	-0.18662	-0.003357	-0.003052	-0.025787	-0.082703	-0.009308	0.016022	-0.005035	-0.016937	-0.012817	0.003204	-0.043945	-0.000763	-0.012207
47.745	0.009003	0.007782	-0.12024	0.01236	0.020142	-0.021057	-0.018463	0.010529	0.014496	-0.068665	0.011444	-0.014038	-0.009613	-0.054626	-0.00061	0.000458	0.012207	-0.016022	-0.31128	-0.056152	0.027008	0.014191	-0.085602	-0.001221	-0.010834	-0.005341	-0.55145	-0.005035	-0.03952	-0.042572	-0.002136	-0.010834
47.746	0.010681	-0.016022	-0.073395	-0.007629	-0.015411	-0.024109	-0.014191	0.000916	0.011139	-0.028992	0.009918	-0.014801	-0.031738	-0.056915	-0.001373	-0.002441	0.00946	-0.02243	-0.26672	-0.046234	0.070953	0.041656	-0.082397	0.019379	-0.002594	-0.002289	-0.55908	-0.005188	0.074463	-0.071716	-0.001526	-0.009918
47.747	-0.000916	0.009308	0.001068	-0.001526	-0.030212	-0.024567	-0.019531	0.010834	0.025482	-0.013428	0.007782	-0.014343	-0.020294	-0.049744	0.001831	-0.010223	0.011139	-0.041656	-0.16342	0.028076	0.053711	0.01236	-0.002136	0.027924	-0.010223	-0.003815	-0.29541	-0.006561	0.14053	0.002899	0.003204	-0.010071
47.748	0.010071	-0.029449	0.039673	-0.003967	-0.00824	-0.031586	-0.033417	0.00412	0.018921	0.002136	0.061951	-0.014648	-0.013885	-0.046692	0.001373	-0.007019	0.017395	-0.027313	-0.16739	0.033264	-0.010834	0.010681	0.051575	0.018005	-0.006561	-0.011139	-0.29678	-0.002441	0.11917	0.014648	-0.00061	-0.010223
47.749	0.004272	-0.065613	0.023499	-0.009308	-0.001068	-0.054779	-0.033722	0.008087	0.028076	-0.014954	-0.021515	-0.012817	-0.017242	-0.044556	-0.009766	-0.005341	0.010223	-0.053864	-0.37094	0.051727	-0.058441	0.01709	0.074463	-0.023651	-0.033264	-0.00946	-0.056763	-0.003815	0.005646	0.033264	0.001068	-0.017395
47.75	0.010986	-0.042572	-0.015717	0.001678	0.022888	-0.071411	-0.030975	0.006561	0.028839	-0.040588	0.025024	-0.017242	-0.006866	-0.095825	-0.00824	-0.008545	0.009918	-0.056763	-0.19211	0.026398	-0.046692	0.03006	0.11719	-0.037231	-0.058289	-0.012817	0.06134	-0.005188	-0.051727	0.011597	-0.003357	-0.002747
47.751	0.006866	-0.042877	0.030212	-0.01709	0.027161	-0.06012	-0.018005	0.001984	0.02533	-0.049286	-0.003204	-0.010834	-0.015869	-0.081635	-0.008545	-0.004425	0.017242	-0.00946	-0.03006	0.012665	-0.023346	0.018463	0.15411	-0.06897	-0.10239	-0.005341	0.025024	-0.002441	-0.019836	-0.003662	-0.002899	-0.01358
47.752	0.013428	-0.063477	-0.033264	-0.010071	-0.00412	-0.037231	-0.023499	-0.001373	0.023041	-0.049286	0.001831	-0.013275	-0.032196	-0.080414	0.003662	-0.009308	0.005035	0.019989	-0.087585	0.052032	0.066223	0.024567	0.040131	-0.11887	-0.093689	-0.010376	0.00885	-0.001984	0.014496	-0.000763	-0.004883	-0.008392
47.753	0.014496	-0.028839	-0.086365	-0.017548	-0.007629	-0.046844	-0.026703	0.000763	0.031586	-0.047455	-0.002594	-0.01236	-0.018768	-0.096436	0.035553	-0.013885	-0.001526	0.029907	0.001068	0.013275	0.039215	0.004883	-0.017548	-0.11719	-0.071259	-0.009155	-0.025482	-0.00473	0.086517	0.072632	-0.001526	-0.00946
47.754	0.010834	-0.039825	-0.096893	-0.015564	0.015411	-0.053864	-0.015869	0.003357	0.024872	-0.047913	0.00412	-0.007477	-0.007324	-0.0914	0.028381	-0.014191	0.001526	0.062103	-0.080109	0.011902	-0.009918	0.001221	0.028381	-0.052795	-0.068054	-0.009613	0.041504	-0.001068	0.21332	0.007477	0.009918	-0.00824
47.755	0.000763	-0.05722	-0.054779	0.005646	0.014343	-0.026398	-0.026093	0.003052	0.027161	-0.028534	0.005798	-0.018463	-0.014648	-0.03418	-0.016327	-0.005188	0.013123	0.085754	-0.13611	0.047913	-0.027924	-0.015106	-0.08255	-0.057373	0.036316	-0.00351	0.077972	-0.003815	0.18097	-0.023956	0.000305	-0.011292
47.756	-0.007782	-0.049744	-0.000305	-0.011292	0.024109	-0.011902	-0.02121	0.009766	0.014954	-0.002289	0.017242	-0.015259	-0.013428	-0.013428	-0.041962	-0.00885	0.014191	0.075378	-0.13931	0.032196	-0.001068	-0.012054	-0.087585	-0.000458	0.12375	0.000763	-0.042877	-0.005493	-0.062561	0.002747	-0.001526	-0.006409
47.757	-0.006866	-0.069122	-0.007324	-0.010223	0.023346	0.021362	-0.01297	0.007935	0.013428	-0.002747	0.009308	-0.010834	-0.021667	-0.0383	-0.033417	-0.002441	0.002594	0.068359	-0.19592	0.025787	0.075226	-0.013275	-0.2507	0.054474	0.10071	0.003967	-0.088654	-0.007019	-0.05188	-0.010681	0.000916	-0.018005
47.758	-0.016327	-0.098877	0.000458	0.008545	0.018158	0.019836	-0.029144	0.00473	0.010376	-0.006409	0.013733	-0.006104	-0.012817	-0.058746	-0.032043	-0.009308	0.007172	0.002289	-0.27542	0.000153	0.031128	-0.016174	-0.16892	0.03952	0.11993	0.003815	-0.12314	-0.00061	0.04715	-0.048065	0.000153	-0.011597
47.759	-0.009155	-0.11459	-0.028534	-0.010376	-0.041199	-0.025787	-0.023041	0.020905	0.010681	0.007935	0.010986	-0.012512	-0.016327	-0.10178	-0.010071	-0.014496	0.015259	-0.002899	-0.45883	-0.043182	0.012512	-0.016937	-0.016937	-0.009308	0.053406	0.001373	-0.036621	-0.000458	0.81421	-0.050812	-0.002136	-0.014496
